<svg xmlns="http://www.w3.org/2000/svg" xmlns:xlink="http://www.w3.org/1999/xlink" x="0px" y="0px" viewBox="0 0 16 16" enable-background="new 0 0 16 16" xml:space="preserve">
	<rect fill="#e7e794" width="1" height="15" x="1" y="0"/>
	<rect fill="#e79c21" width="2" height="15" x="2" y="0"/>

	<rect fill="#6b6b00" width="2" height="1" x="1" y="1"/>
	<rect fill="#6b6b00" width="2" height="1" x="1" y="3"/>
	<rect fill="#6b6b00" width="2" height="1" x="1" y="5"/>
	<rect fill="#6b6b00" width="2" height="1" x="1" y="7"/>
	<rect fill="#6b6b00" width="2" height="1" x="1" y="9"/>
	<rect fill="#6b6b00" width="2" height="1" x="1" y="11"/>
	<rect fill="#6b6b00" width="2" height="1" x="1" y="13"/>

	<rect fill="#e79c21" width="1" height="2" x="4" y="1"/>
	<rect fill="#e7e794" width="1" height="9" x="4" y="3"/>
	<rect fill="#e79c21" width="1" height="1" x="4" y="12"/>
	<rect fill="#6b6b00" width="1" height="1" x="4" y="13"/>

	<rect fill="#6b6b00" width="1" height="1" x="5" y="1"/>
	<rect fill="#e79c21" width="1" height="3" x="5" y="2"/>
	<rect fill="#e7e794" width="1" height="2" x="5" y="5"/>
	<rect fill="#e79c21" width="1" height="5" x="5" y="7"/>
	<rect fill="#6b6b00" width="1" height="2" x="5" y="12"/>
	
	<rect fill="#e7e794" width="1" height="2" x="6" y="0"/>
	<rect fill="#e79c21" width="1" height="4" x="6" y="2"/>
	<rect fill="#e7e794" width="1" height="1" x="6" y="6"/>
	<rect fill="#e79c21" width="1" height="1" x="6" y="7"/>
	<rect fill="#6b6b00" width="1" height="2" x="6" y="8"/>
	<rect fill="#e79c21" width="1" height="2" x="6" y="10"/>
	<rect fill="#6b6b00" width="1" height="2" x="6" y="12"/>
	<rect fill="#e79c21" width="1" height="1" x="6" y="14"/>

	<rect fill="#e7e794" width="1" height="7" x="7" y="0"/>
	<rect fill="#6b6b00" width="1" height="2" x="7" y="7"/>
	<rect fill="#e7e794" width="1" height="1" x="7" y="9"/>
	<rect fill="#e79c21" width="1" height="2" x="7" y="10"/>
	<rect fill="#6b6b00" width="1" height="2" x="7" y="12"/>
	<rect fill="#e79c21" width="1" height="1" x="7" y="14"/>
	
	<rect fill="#e79c21" width="1" height="2" x="8" y="0"/>
	<rect fill="#6b6b00" width="1" height="4" x="8" y="2"/>
	<rect fill="#e79c21" width="1" height="1" x="8" y="6"/>
	<rect fill="#e79c21" width="1" height="1" x="8" y="7"/>
	<rect fill="#e7e794" width="1" height="2" x="8" y="8"/>
	<rect fill="#e79c21" width="1" height="2" x="8" y="10"/>
	<rect fill="#6b6b00" width="1" height="3" x="8" y="12"/>

	<rect fill="#6b6b00" width="1" height="1" x="9" y="1"/>
	<rect fill="#e79c21" width="1" height="2" x="9" y="2"/>
	<rect fill="#e7e794" width="1" height="3" x="9" y="4"/>
	<rect fill="#e79c21" width="1" height="5" x="9" y="7"/>
	<rect fill="#6b6b00" width="1" height="2" x="9" y="12"/>

	<rect fill="#e79c21" width="1" height="4" x="10" y="1"/>
	<rect fill="#6b6b00" width="1" height="7" x="10" y="5"/>
	<rect fill="#e79c21" width="1" height="1" x="10" y="12"/>
	<rect fill="#6b6b00" width="1" height="1" x="10" y="13"/>

	<rect fill="#e79c21" width="3" height="15" x="11" y="0"/>
	<rect fill="#e7e794" width="1" height="1" x="11" y="0"/>
	<rect fill="#6b6b00" width="1" height="10" x="11" y="3"/>
	<rect fill="#6b6b00" width="1" height="1" x="11" y="14"/>


	<rect fill="#6b6b00" width="2" height="1" x="12" y="1"/>
	<rect fill="#6b6b00" width="2" height="1" x="12" y="3"/>
	<rect fill="#6b6b00" width="2" height="1" x="12" y="5"/>
	<rect fill="#6b6b00" width="2" height="1" x="12" y="7"/>
	<rect fill="#6b6b00" width="2" height="1" x="12" y="9"/>
	<rect fill="#6b6b00" width="2" height="1" x="12" y="11"/>
	<rect fill="#6b6b00" width="2" height="1" x="12" y="13"/>
</svg>
