<svg xmlns="http://www.w3.org/2000/svg" xmlns:xlink="http://www.w3.org/1999/xlink" x="0px" y="0px" viewBox="0 0 16 16" enable-background="new 0 0 16 16" xml:space="preserve">
	<rect fill="#b5f7ce" width="1" height="11" x="1" y="4"/>
	<rect fill="#008c31" width="1" height="11" x="2" y="4"/>
	<rect fill="#008c31" width="1" height="1" x="3" y="4"/>
	<rect fill="#b5f7ce" width="1" height="9" x="3" y="5"/>
	<rect fill="#008c31" width="1" height="1" x="3" y="14"/>

	<rect fill="#005200" width="2" height="1" x="1" y="5"/>
	<rect fill="#005200" width="2" height="1" x="1" y="7"/>
	<rect fill="#005200" width="2" height="1" x="1" y="9"/>
	<rect fill="#005200" width="2" height="1" x="1" y="11"/>
	<rect fill="#005200" width="2" height="1" x="1" y="13"/>


	<rect fill="#b5f7ce" width="1" height="5" x="4" y="7"/>
	<rect fill="#005200" width="1" height="1" x="4" y="12"/>

	<rect fill="#b5f7ce" width="1" height="2" x="5" y="6"/>
	<rect fill="#008c31" width="1" height="3" x="5" y="8"/>
	<rect fill="#b5f7ce" width="1" height="2" x="5" y="11"/>
	<rect fill="#005200" width="1" height="1" x="5" y="13"/>

	<rect fill="#008c31" width="1" height="2" x="6" y="6"/>
	<rect fill="#b5f7ce" width="1" height="3" x="6" y="8"/>
	<rect fill="#008c31" width="1" height="1" x="6" y="11"/>
	<rect fill="#b5f7ce" width="1" height="1" x="6" y="12"/>
	<rect fill="#005200" width="1" height="1" x="6" y="13"/>

	<rect fill="#b5f7ce" width="1" height="5" x="7" y="2"/>
	<rect fill="#008c31" width="1" height="1" x="7" y="7"/>
	<rect fill="#b5f7ce" width="1" height="1" x="7" y="8"/>
	<rect fill="#008c31" width="1" height="2" x="7" y="9"/>
	<rect fill="#005200" width="1" height="1" x="7" y="11"/>
	<rect fill="#008c31" width="1" height="1" x="7" y="12"/>
	<rect fill="#005200" width="1" height="1" x="7" y="13"/>

	<rect fill="#005200" width="1" height="1" x="8" y="6"/>
	<rect fill="#008c31" width="1" height="2" x="8" y="7"/>
	<rect fill="#005200" width="1" height="3" x="8" y="9"/>
	<rect fill="#008c31" width="1" height="1" x="8" y="12"/>
	<rect fill="#005200" width="1" height="1" x="8" y="13"/>

	<rect fill="#005200" width="1" height="1" x="9" y="6"/>
	<rect fill="#008c31" width="1" height="6" x="9" y="7"/>
	<rect fill="#005200" width="1" height="1" x="9" y="13"/>

	<rect fill="#005200" width="1" height="1" x="10" y="7"/>
	<rect fill="#008c31" width="1" height="4" x="10" y="8"/>
	<rect fill="#005200" width="1" height="1" x="10" y="12"/>


	<rect fill="#b5f7ce" width="1" height="1" x="11" y="4"/>
	<rect fill="#005200" width="1" height="10" x="11" y="5"/>
	<rect fill="#008c31" width="2" height="11" x="12" y="4"/>

	<rect fill="#005200" width="2" height="1" x="12" y="5"/>
	<rect fill="#005200" width="2" height="1" x="12" y="7"/>
	<rect fill="#005200" width="2" height="1" x="12" y="9"/>
	<rect fill="#005200" width="2" height="1" x="12" y="11"/>
	<rect fill="#005200" width="2" height="1" x="12" y="13"/>
</svg>
